Coordinates
version=1
nRows=24
nColumns=38
inDegrees=no

Units are S.I. units (second, meters, Newtons, ...)
If the header above contains a line with 'inDegrees', this indicates whether rotational values are in degrees (yes) or radians (no).

endheader
time	pelvis_tilt	pelvis_list	pelvis_rotation	pelvis_tx	pelvis_ty	pelvis_tz	hip_flexion_r	hip_adduction_r	hip_rotation_r	knee_angle_r	ankle_angle_r	subtalar_angle_r	mtp_angle_r	hip_flexion_l	hip_adduction_l	hip_rotation_l	knee_angle_l	ankle_angle_l	subtalar_angle_l	mtp_angle_l	lumbar_extension	lumbar_bending	lumbar_rotation	arm_flex_r	arm_add_r	arm_rot_r	elbow_flex_r	pro_sup_r	wrist_flex_r	wrist_dev_r	arm_flex_l	arm_add_l	arm_rot_l	elbow_flex_l	pro_sup_l	wrist_flex_l	wrist_dev_l
25.55	2.17581	1.40648	-0.703444	0.676726	1.47905	0.981142	-0.0599535	0.091699	-0.239169	0.277217	0.124039	0	0	-0.220564	-0.0886275	-0.223052	0	0.0691772	0	0	-0.454245	0.152664	0.161731	0.910331	-0.315994	0.544809	0.595993	1.28296	0	0	0.821326	-0.167176	0.409393	0.640745	1.12144	0	0
25.56	2.16781	1.40709	-0.696547	0.675798	1.47999	0.981028	-0.0592093	0.0911706	-0.23832	0.276639	0.124244	0	0	-0.219848	-0.0879102	-0.223034	0	0.0699314	0	0	-0.452621	0.153064	0.162226	0.907647	-0.316273	0.535649	0.593907	1.31211	0	0	0.81794	-0.165141	0.407996	0.638744	1.13948	0	0
25.57	2.14085	1.40786	-0.674299	0.674829	1.48108	0.980853	-0.0579872	0.0860603	-0.245194	0.273621	0.129295	0	0	-0.224226	-0.086924	-0.225109	0	0.0705952	0	0	-0.448834	0.155253	0.164619	0.905868	-0.318685	0.53908	0.594818	1.30663	0	0	0.813732	-0.165105	0.414493	0.638488	1.13379	0	0
25.58	2.11205	1.41072	-0.648682	0.674101	1.48166	0.980436	-0.0511888	0.0849501	-0.242685	0.276962	0.13078	0	0	-0.218644	-0.0859837	-0.22735	0	0.0725859	0	0	-0.443333	0.155936	0.165624	0.907611	-0.328982	0.592034	0.605276	1.15726	0	0	0.808987	-0.168294	0.432539	0.644481	1.07737	0	0
25.59	2.00692	1.41977	-0.550484	0.673312	1.48268	0.979467	-0.0291307	0.0842553	-0.236869	0.28323	0.131449	0	0	-0.199133	-0.0853732	-0.232616	0	0.0751126	0	0	-0.426713	0.16199	0.159414	0.912765	-0.322428	0.618531	0.60251	1.12033	0	0	0.789691	-0.178766	0.421293	0.661888	1.06279	0	0
25.6	2.03042	1.41594	-0.571728	0.672335	1.4834	0.97992	-0.0384958	0.0856859	-0.237106	0.275919	0.127991	0	0	-0.205785	-0.086036	-0.228478	0	0.0737353	0	0	-0.432165	0.163698	0.157922	0.909415	-0.318837	0.585822	0.593349	1.22882	0	0	0.788962	-0.176924	0.421424	0.657985	1.09433	0	0
25.61	2.00981	1.41687	-0.553054	0.671503	1.48408	0.979732	-0.0355503	0.0852571	-0.235877	0.276252	0.128005	0	0	-0.203041	-0.0855302	-0.229326	0	0.0747223	0	0	-0.428782	0.164546	0.159015	0.906892	-0.321505	0.590065	0.593142	1.22215	0	0	0.785773	-0.176513	0.427443	0.657134	1.08897	0	0
25.62	1.98789	1.41785	-0.533466	0.670632	1.48481	0.979538	-0.0324278	0.0846481	-0.234439	0.276654	0.128137	0	0	-0.200314	-0.0848206	-0.230736	0	0.0755881	0	0	-0.425082	0.165406	0.160484	0.904089	-0.32444	0.594781	0.592868	1.21602	0	0	0.782301	-0.175987	0.433204	0.656269	1.08295	0	0
25.63	1.96477	1.41869	-0.512259	0.66968	1.48549	0.979329	-0.0292432	0.0842013	-0.233421	0.276852	0.128196	0	0	-0.197285	-0.0843307	-0.231616	0	0.076637	0	0	-0.421176	0.166512	0.161934	0.900856	-0.327794	0.599211	0.592464	1.21074	0	0	0.778999	-0.175129	0.439258	0.65531	1.07697	0	0
25.64	1.94115	1.41938	-0.490006	0.668683	1.48608	0.97911	-0.0260193	0.0839744	-0.232331	0.276839	0.127948	0	0	-0.193905	-0.0841209	-0.231684	0	0.0777569	0	0	-0.417438	0.167872	0.162974	0.897517	-0.331259	0.603682	0.591892	1.20674	0	0	0.77601	-0.174425	0.444802	0.654266	1.07224	0	0
25.65	1.91756	1.41994	-0.467777	0.667621	1.48664	0.97888	-0.0229153	0.0837487	-0.231274	0.27656	0.12756	0	0	-0.190554	-0.0838577	-0.231783	0	0.079177	0	0	-0.413756	0.169336	0.163939	0.893679	-0.334451	0.607214	0.590788	1.20416	0	0	0.773024	-0.173769	0.449513	0.653608	1.06792	0	0
25.66	1.89445	1.42048	-0.445937	0.666512	1.48719	0.978644	-0.0199093	0.0834302	-0.230399	0.276122	0.127171	0	0	-0.1872	-0.0834736	-0.231783	0	0.080483	0	0	-0.410169	0.170745	0.164752	0.889261	-0.337347	0.610041	0.588992	1.20251	0	0	0.770035	-0.173242	0.453913	0.653791	1.0632	0	0
25.67	1.87168	1.42106	-0.424047	0.665358	1.48774	0.978396	-0.0170057	0.0830037	-0.229773	0.275575	0.126917	0	0	-0.18368	-0.0830631	-0.231322	0	0.0817967	0	0	-0.406657	0.172129	0.165177	0.88415	-0.340166	0.61243	0.586979	1.20126	0	0	0.767119	-0.172797	0.458067	0.654697	1.05896	0	0
25.68	1.85028	1.42158	-0.403422	0.664185	1.48825	0.978158	-0.0141701	0.0823923	-0.22921	0.275359	0.126837	0	0	-0.18027	-0.082601	-0.230779	0	0.0831251	0	0	-0.4035	0.173371	0.165574	0.878116	-0.343009	0.613917	0.585439	1.19989	0	0	0.764416	-0.172237	0.46164	0.656247	1.05552	0	0
25.69	1.83242	1.42191	-0.386129	0.662938	1.48877	0.977957	-0.0120081	0.0816151	-0.228839	0.27488	0.12658	0	0	-0.177403	-0.0819836	-0.229905	0	0.0843358	0	0	-0.40111	0.174607	0.165944	0.8714	-0.345385	0.610931	0.583946	1.20895	0	0	0.761891	-0.170281	0.459524	0.656777	1.06811	0	0
25.7	1.81299	1.42213	-0.367102	0.661626	1.48923	0.977703	-0.0091519	0.0807846	-0.229285	0.275336	0.126853	0	0	-0.174153	-0.0815608	-0.228668	0	0.085948	0	0	-0.398709	0.176089	0.166631	0.864699	-0.34964	0.611717	0.587166	1.19498	0	0	0.760227	-0.169919	0.467591	0.66003	1.04696	0	0
25.71	1.792	1.42207	-0.346334	0.660266	1.48972	0.977426	-0.00590629	0.080185	-0.22996	0.276399	0.127304	0	0	-0.17073	-0.081562	-0.227214	0	0.0876498	0	0	-0.396321	0.177975	0.167996	0.856778	-0.353818	0.601606	0.593569	1.19364	0	0	0.758924	-0.168009	0.473006	0.661327	1.04049	0	0
25.72	1.77366	1.4215	-0.327985	0.658835	1.4902	0.977192	-0.0033946	0.079981	-0.229963	0.276908	0.127165	0	0	-0.167777	-0.0819501	-0.225498	0	0.0896365	0	0	-0.394623	0.180455	0.169408	0.849481	-0.358019	0.590964	0.601295	1.19408	0	0	0.757656	-0.165738	0.478206	0.661906	1.0382	0	0
25.73	1.75794	1.42044	-0.311873	0.657333	1.49067	0.976997	-0.0014061	0.0801168	-0.229639	0.277273	0.1266	0	0	-0.165219	-0.0827423	-0.223278	0.000823111	0.0918104	0	0	-0.393425	0.18359	0.170232	0.843745	-0.362358	0.586071	0.608913	1.18642	0	0	0.755816	-0.162773	0.479234	0.661372	1.04991	0	0
25.74	1.73838	1.41947	-0.291465	0.655815	1.49115	0.976729	0.00165102	0.0802415	-0.229948	0.278561	0.126407	0	0	-0.161652	-0.0837665	-0.220719	0.00323079	0.0941472	0	0	-0.391242	0.186817	0.170942	0.837366	-0.365778	0.574222	0.614539	1.20065	0	0	0.754255	-0.161454	0.491092	0.662929	1.03344	0	0
25.75	1.72139	1.41824	-0.273223	0.6542	1.49166	0.976457	0.00450272	0.0803435	-0.230749	0.280422	0.126492	0	0	-0.158712	-0.0847482	-0.217573	0.00506692	0.0961079	0	0	-0.389159	0.190686	0.170412	0.833573	-0.369814	0.573372	0.618513	1.1923	0	0	0.751222	-0.15893	0.493916	0.662763	1.04439	0	0
25.76	1.70134	1.41753	-0.251872	0.652593	1.49227	0.97612	0.00864624	0.0797497	-0.232277	0.283863	0.127536	0	0	-0.155221	-0.0852302	-0.214856	0.006764	0.0982813	0	0	-0.385854	0.194115	0.169358	0.829368	-0.372742	0.567841	0.620215	1.1946	0	0	0.747797	-0.157737	0.501597	0.664127	1.04116	0	0
25.77	1.6806	1.41722	-0.229693	0.650986	1.49292	0.975752	0.013654	0.0785393	-0.233924	0.288674	0.129247	0	0	-0.151814	-0.0851747	-0.211949	0.0078584	0.100095	0	0	-0.381889	0.197108	0.167499	0.825435	-0.374969	0.562352	0.620784	1.19642	0	0	0.743813	-0.157183	0.508321	0.666443	1.03704	0	0
25.78	1.65816	1.41729	-0.205468	0.649389	1.49354	0.975351	0.0199456	0.0768583	-0.235279	0.295179	0.131274	0	0	-0.148126	-0.0847296	-0.208459	0.00850609	0.101603	0	0	-0.377468	0.199732	0.16477	0.822088	-0.377016	0.558738	0.621192	1.19746	0	0	0.739351	-0.157182	0.513704	0.669514	1.0328	0	0
